<?xml version="1.0" encoding="UTF-8"?>
<!DOCTYPE svg PUBLIC "-//W3C//DTD SVG 1.1//EN" "http://www.w3.org/Graphics/SVG/1.1/DTD/svg11.dtd">
<!-- Creator: CorelDRAW 2019 (64-Bit) -->
<svg xmlns="http://www.w3.org/2000/svg" xml:space="preserve" width="10.5in" height="4.209in" version="1.1" style="shape-rendering:geometricPrecision; text-rendering:geometricPrecision; image-rendering:optimizeQuality; fill-rule:evenodd; clip-rule:evenodd"
viewBox="0 0 10500 4209"
 xmlns:xlink="http://www.w3.org/1999/xlink"
 xmlns:xodm="http://www.corel.com/coreldraw/odm/2003">
 <defs>
  <style type="text/css">
   <![CDATA[
    .fil0 {fill:#373435;fill-rule:nonzero}
    .fil1 {fill:url(#id0)}
   ]]>
  </style>
  <radialGradient id="id0" gradientUnits="userSpaceOnUse" gradientTransform="matrix(-2.05785 0.50504 0.505041 2.05785 29652 -6476)" cx="9925.46" cy="1383.46" r="5127.56" fx="9925.46" fy="1383.46">
   <stop offset="0" style="stop-opacity:1; stop-color:#298CD9"/>
   <stop offset="0.0117647" style="stop-opacity:1; stop-color:#87498B"/>
   <stop offset="0.560784" style="stop-opacity:1; stop-color:#622382"/>
   <stop offset="0.980392" style="stop-opacity:1; stop-color:#E5073D"/>
   <stop offset="1" style="stop-opacity:1; stop-color:#E5073D"/>
  </radialGradient>
 </defs>
 <g id="Layer_x0020_1">
  <metadata id="CorelCorpID_0Corel-Layer"/>
  <path class="fil0" d="M847.98 3747.98l-116.78 0 0 -55.37 298.99 0 0 55.37 -116.78 0 0 296.98 -65.43 0 0 -296.98zm450.5 164.09c0,4.36 -0.33,10.57 -1.01,18.63l-210.9 0c3.69,19.8 13.34,35.48 28.94,47.06 15.61,11.57 34.98,17.37 58.14,17.37 29.53,0 53.86,-9.73 72.98,-29.2l33.72 38.76c-12.08,14.43 -27.35,25.33 -45.8,32.72 -18.46,7.38 -39.26,11.07 -62.42,11.07 -29.53,0 -55.54,-5.87 -78.02,-17.62 -22.48,-11.74 -39.85,-28.1 -52.09,-49.07 -12.25,-20.97 -18.37,-44.72 -18.37,-71.22 0,-26.17 5.96,-49.75 17.87,-70.72 11.91,-20.97 28.44,-37.33 49.58,-49.08 21.14,-11.74 44.97,-17.62 71.48,-17.62 26.17,0 49.58,5.79 70.22,17.37 20.64,11.58 36.75,27.85 48.32,48.83 11.58,20.97 17.37,45.22 17.37,72.73zm-135.91 -88.59c-20.13,0 -37.16,5.95 -51.09,17.87 -13.93,11.91 -22.4,27.77 -25.42,47.57l152.52 0c-2.69,-19.46 -10.91,-35.23 -24.67,-47.31 -13.76,-12.08 -30.87,-18.12 -51.34,-18.12zm319.63 225c-27.85,0 -52.85,-5.87 -75,-17.62 -22.15,-11.74 -39.43,-28.1 -51.84,-49.07 -12.42,-20.97 -18.63,-44.72 -18.63,-71.22 0,-26.51 6.21,-50.17 18.63,-70.97 12.41,-20.81 29.61,-37.08 51.59,-48.83 21.98,-11.74 47.06,-17.62 75.25,-17.62 26.51,0 49.75,5.37 69.72,16.11 19.96,10.74 34.98,26.17 45.05,46.31l-48.32 28.19c-7.72,-12.42 -17.37,-21.73 -28.94,-27.94 -11.57,-6.21 -24.24,-9.31 -38,-9.31 -23.49,0 -42.95,7.63 -58.39,22.9 -15.44,15.27 -23.15,35.65 -23.15,61.16 0,25.5 7.63,45.89 22.9,61.16 15.27,15.27 34.81,22.9 58.64,22.9 13.76,0 26.43,-3.11 38,-9.31 11.58,-6.21 21.22,-15.52 28.94,-27.94l48.32 28.19c-10.4,20.13 -25.59,35.65 -45.55,46.56 -19.97,10.91 -43.04,16.36 -69.21,16.36zm319.13 -275.33c33.89,0 61.07,9.9 81.54,29.7 20.47,19.8 30.7,49.16 30.7,88.09l0 154.02 -62.92 0 0 -145.97c0,-23.49 -5.54,-41.19 -16.61,-53.1 -11.07,-11.91 -26.85,-17.87 -47.31,-17.87 -23.15,0 -41.44,6.96 -54.87,20.89 -13.42,13.93 -20.13,33.98 -20.13,60.15l0 135.91 -62.92 0 0 -373.48 62.92 0 0 135.9c10.4,-11.07 23.24,-19.55 38.51,-25.42 15.27,-5.87 32.3,-8.81 51.09,-8.81zm344.8 0c33.89,0 61.07,9.9 81.54,29.7 20.47,19.8 30.7,49.16 30.7,88.09l0 154.02 -62.92 0 0 -145.97c0,-23.49 -5.54,-41.19 -16.61,-53.1 -11.07,-11.91 -26.85,-17.87 -47.31,-17.87 -23.15,0 -41.44,6.96 -54.87,20.89 -13.42,13.93 -20.13,33.98 -20.13,60.15l0 135.91 -62.92 0 0 -268.79 59.9 0 0 34.73c10.4,-12.41 23.49,-21.81 39.26,-28.19 15.77,-6.38 33.56,-9.57 53.36,-9.57zm315.6 275.33c-27.18,0 -51.68,-5.87 -73.49,-17.62 -21.81,-11.74 -38.84,-28.1 -51.09,-49.07 -12.25,-20.97 -18.37,-44.72 -18.37,-71.22 0,-26.51 6.13,-50.17 18.37,-70.97 12.25,-20.81 29.28,-37.08 51.09,-48.83 21.81,-11.74 46.31,-17.62 73.49,-17.62 27.52,0 52.18,5.87 73.99,17.62 21.81,11.74 38.84,28.02 51.09,48.83 12.25,20.8 18.37,44.46 18.37,70.97 0,26.51 -6.13,50.25 -18.37,71.22 -12.25,20.97 -29.28,37.33 -51.09,49.07 -21.81,11.74 -46.48,17.62 -73.99,17.62zm0 -53.86c23.15,0 42.28,-7.72 57.38,-23.15 15.1,-15.44 22.65,-35.74 22.65,-60.91 0,-25.17 -7.55,-45.47 -22.65,-60.91 -15.1,-15.44 -34.23,-23.15 -57.38,-23.15 -23.15,0 -42.2,7.72 -57.13,23.15 -14.93,15.44 -22.4,35.74 -22.4,60.91 0,25.17 7.46,45.47 22.4,60.91 14.93,15.44 33.98,23.15 57.13,23.15zm203.86 -323.15l62.92 0 0 373.48 -62.92 0 0 -373.48zm266.27 377.01c-27.18,0 -51.68,-5.87 -73.49,-17.62 -21.81,-11.74 -38.84,-28.1 -51.09,-49.07 -12.25,-20.97 -18.37,-44.72 -18.37,-71.22 0,-26.51 6.13,-50.17 18.37,-70.97 12.25,-20.81 29.28,-37.08 51.09,-48.83 21.81,-11.74 46.31,-17.62 73.49,-17.62 27.52,0 52.18,5.87 73.99,17.62 21.81,11.74 38.84,28.02 51.09,48.83 12.25,20.8 18.37,44.46 18.37,70.97 0,26.51 -6.13,50.25 -18.37,71.22 -12.25,20.97 -29.28,37.33 -51.09,49.07 -21.81,11.74 -46.48,17.62 -73.99,17.62zm0 -53.86c23.15,0 42.28,-7.72 57.38,-23.15 15.1,-15.44 22.65,-35.74 22.65,-60.91 0,-25.17 -7.55,-45.47 -22.65,-60.91 -15.1,-15.44 -34.23,-23.15 -57.38,-23.15 -23.15,0 -42.2,7.72 -57.13,23.15 -14.93,15.44 -22.4,35.74 -22.4,60.91 0,25.17 7.46,45.47 22.4,60.91 14.93,15.44 33.98,23.15 57.13,23.15zm470.63 -218.45l0 228.02c0,94.63 -48.32,141.94 -144.96,141.94 -25.84,0 -50.33,-3.27 -73.49,-9.81 -23.15,-6.54 -42.28,-16.02 -57.38,-28.44l28.19 -47.31c11.74,9.73 26.59,17.54 44.55,23.41 17.95,5.87 36.16,8.81 54.61,8.81 29.53,0 51.17,-6.71 64.93,-20.13 13.76,-13.43 20.63,-33.89 20.63,-61.41l0 -14.09c-10.74,11.74 -23.82,20.64 -39.26,26.68 -15.44,6.04 -32.38,9.06 -50.84,9.06 -25.5,0 -48.57,-5.45 -69.21,-16.36 -20.64,-10.91 -36.91,-26.26 -48.83,-46.06 -11.91,-19.8 -17.87,-42.45 -17.87,-67.95 0,-25.5 5.96,-48.07 17.87,-67.7 11.91,-19.63 28.19,-34.81 48.83,-45.55 20.63,-10.74 43.7,-16.11 69.21,-16.11 19.46,0 37.17,3.19 53.1,9.57 15.94,6.37 29.28,16.11 40.02,29.19l0 -35.74 59.9 0zm-143.46 203.35c23.83,0 43.37,-7.13 58.64,-21.39 15.27,-14.26 22.9,-32.8 22.9,-55.62 0,-22.48 -7.63,-40.77 -22.9,-54.87 -15.27,-14.09 -34.81,-21.14 -58.64,-21.14 -24.16,0 -43.87,7.05 -59.14,21.14 -15.27,14.09 -22.9,32.38 -22.9,54.87 0,22.82 7.63,41.36 22.9,55.62 15.27,14.26 34.98,21.39 59.14,21.39zm477.68 -203.35l-125.83 290.43c-11.75,29.19 -26.01,49.75 -42.79,61.66 -16.78,11.91 -37.08,17.87 -60.91,17.87 -13.42,0 -26.68,-2.18 -39.76,-6.54 -13.09,-4.36 -23.83,-10.4 -32.21,-18.12l25.17 -46.31c6.04,5.7 13.17,10.24 21.39,13.59 8.22,3.35 16.53,5.04 24.91,5.04 11.07,0 20.22,-2.85 27.43,-8.56 7.22,-5.7 13.84,-15.27 19.88,-28.69l4.53 -10.57 -117.28 -269.8 65.43 0 84.56 198.82 85.07 -198.82 60.4 0zm339.76 254.19c-7.38,6.04 -16.36,10.57 -26.93,13.59 -10.57,3.02 -21.73,4.53 -33.47,4.53 -29.53,0 -52.35,-7.72 -68.46,-23.15 -16.11,-15.44 -24.16,-37.92 -24.16,-67.45l0 -129.36 -44.3 0 0 -50.33 44.3 0 0 -61.41 62.92 0 0 61.41 71.98 0 0 50.33 -71.98 0 0 127.85c0,13.09 3.19,23.07 9.56,29.95 6.37,6.88 15.6,10.32 27.69,10.32 14.09,0 25.84,-3.69 35.23,-11.07l17.62 44.8zm204.36 -257.21c33.89,0 61.07,9.9 81.54,29.7 20.47,19.8 30.7,49.16 30.7,88.09l0 154.02 -62.92 0 0 -145.97c0,-23.49 -5.54,-41.19 -16.61,-53.1 -11.07,-11.91 -26.85,-17.87 -47.31,-17.87 -23.15,0 -41.44,6.96 -54.87,20.89 -13.42,13.93 -20.13,33.98 -20.13,60.15l0 135.91 -62.92 0 0 -373.48 62.92 0 0 135.9c10.4,-11.07 23.24,-19.55 38.51,-25.42 15.27,-5.87 32.3,-8.81 51.09,-8.81zm294.96 0c39.6,0 69.88,9.48 90.85,28.44 20.98,18.96 31.46,47.57 31.46,85.82l0 157.55 -59.39 0 0 -32.72c-7.72,11.74 -18.71,20.72 -32.97,26.93 -14.26,6.21 -31.46,9.31 -51.59,9.31 -20.13,0 -37.75,-3.44 -52.85,-10.32 -15.1,-6.88 -26.76,-16.44 -34.98,-28.69 -8.22,-12.25 -12.33,-26.09 -12.33,-41.53 0,-24.16 8.98,-43.54 26.93,-58.14 17.95,-14.6 46.22,-21.9 84.81,-21.9l69.46 0 0 -4.02c0,-18.79 -5.62,-33.22 -16.86,-43.29 -11.24,-10.07 -27.94,-15.1 -50.08,-15.1 -15.1,0 -29.95,2.35 -44.55,7.05 -14.6,4.7 -26.93,11.24 -37,19.63l-24.67 -45.8c14.09,-10.74 31.04,-18.96 50.84,-24.67 19.8,-5.7 40.77,-8.56 62.92,-8.56zm-8.56 229.53c15.77,0 29.78,-3.61 42.03,-10.82 12.25,-7.22 20.89,-17.54 25.93,-30.96l0 -31.21 -64.93 0c-36.24,0 -54.36,11.91 -54.36,35.74 0,11.41 4.53,20.47 13.59,27.18 9.06,6.71 21.65,10.07 37.75,10.07zm372.98 27.68c-7.38,6.04 -16.36,10.57 -26.93,13.59 -10.57,3.02 -21.73,4.53 -33.47,4.53 -29.53,0 -52.35,-7.72 -68.46,-23.15 -16.11,-15.44 -24.16,-37.92 -24.16,-67.45l0 -129.36 -44.3 0 0 -50.33 44.3 0 0 -61.41 62.92 0 0 61.41 71.98 0 0 50.33 -71.98 0 0 127.85c0,13.09 3.19,23.07 9.56,29.95 6.37,6.88 15.6,10.32 27.69,10.32 14.09,0 25.84,-3.69 35.23,-11.07l17.62 44.8zm610.06 -254.19l-99.16 268.79 -60.4 0 -69.46 -185.23 -70.47 185.23 -60.4 0 -98.66 -268.79 59.4 0 70.97 198.32 73.99 -198.32 52.85 0 72.48 199.33 72.98 -199.33 55.87 0zm156.54 272.31c-27.18,0 -51.68,-5.87 -73.49,-17.62 -21.81,-11.74 -38.84,-28.1 -51.09,-49.07 -12.25,-20.97 -18.37,-44.72 -18.37,-71.22 0,-26.51 6.13,-50.17 18.37,-70.97 12.25,-20.81 29.28,-37.08 51.09,-48.83 21.81,-11.74 46.31,-17.62 73.49,-17.62 27.52,0 52.18,5.87 73.99,17.62 21.81,11.74 38.84,28.02 51.09,48.83 12.25,20.8 18.37,44.46 18.37,70.97 0,26.51 -6.13,50.25 -18.37,71.22 -12.25,20.97 -29.28,37.33 -51.09,49.07 -21.81,11.74 -46.48,17.62 -73.99,17.62zm0 -53.86c23.15,0 42.28,-7.72 57.38,-23.15 15.1,-15.44 22.65,-35.74 22.65,-60.91 0,-25.17 -7.55,-45.47 -22.65,-60.91 -15.1,-15.44 -34.23,-23.15 -57.38,-23.15 -23.15,0 -42.2,7.72 -57.13,23.15 -14.93,15.44 -22.4,35.74 -22.4,60.91 0,25.17 7.46,45.47 22.4,60.91 14.93,15.44 33.98,23.15 57.13,23.15zm263.76 -179.19c18.12,-28.19 50,-42.28 95.64,-42.28l0 59.9c-5.37,-1.01 -10.24,-1.51 -14.6,-1.51 -24.5,0 -43.62,7.13 -57.38,21.39 -13.76,14.26 -20.64,34.81 -20.64,61.66l0 130.37 -62.92 0 0 -268.79 59.9 0 0 39.26zm258.72 114.26l-46.81 44.3 0 70.97 -62.92 0 0 -373.48 62.92 0 0 225.5 130.37 -120.8 75.5 0 -112.25 112.75 122.82 156.04 -76.51 0 -93.12 -115.27zm284.9 118.79c-21.81,0 -43.12,-2.85 -63.93,-8.56 -20.8,-5.7 -37.41,-12.92 -49.83,-21.64l24.16 -47.82c12.08,8.06 26.59,14.51 43.54,19.38 16.94,4.87 33.64,7.3 50.08,7.3 37.58,0 56.37,-9.9 56.37,-29.7 0,-9.4 -4.78,-15.94 -14.34,-19.63 -9.57,-3.69 -24.92,-7.22 -46.06,-10.57 -22.15,-3.35 -40.19,-7.22 -54.11,-11.58 -13.93,-4.36 -26,-12 -36.24,-22.9 -10.24,-10.91 -15.35,-26.09 -15.35,-45.55 0,-25.5 10.66,-45.89 31.96,-61.16 21.31,-15.27 50.08,-22.91 86.32,-22.91 18.46,0 36.91,2.1 55.37,6.3 18.46,4.19 33.56,9.81 45.3,16.86l-24.16 47.81c-22.82,-13.42 -48.49,-20.13 -77.01,-20.13 -18.46,0 -32.47,2.77 -42.03,8.31 -9.56,5.54 -14.35,12.83 -14.35,21.89 0,10.07 5.12,17.2 15.35,21.39 10.23,4.2 26.09,8.14 47.57,11.83 21.48,3.35 39.09,7.21 52.85,11.57 13.76,4.36 25.59,11.74 35.49,22.15 9.9,10.4 14.85,25.17 14.85,44.3 0,25.17 -10.91,45.3 -32.72,60.4 -21.81,15.1 -51.51,22.65 -89.09,22.65zm424.32 -329.69c-26.51,0 -39.76,14.43 -39.76,43.29l0 16.11 73.99 0 0 50.33 -71.98 0 0 216.44 -62.92 0 0 -216.44 -44.3 0 0 -50.33 44.3 0 0 -17.11c0,-28.86 8.39,-51.59 25.17,-68.2 16.78,-16.61 40.43,-24.91 70.97,-24.91 24.16,0 43.12,4.86 56.88,14.59l-17.62 47.31c-10.74,-7.38 -22.31,-11.07 -34.73,-11.07zm193.29 329.69c-27.18,0 -51.68,-5.87 -73.49,-17.62 -21.81,-11.74 -38.84,-28.1 -51.09,-49.07 -12.25,-20.97 -18.37,-44.72 -18.37,-71.22 0,-26.51 6.13,-50.17 18.37,-70.97 12.25,-20.81 29.28,-37.08 51.09,-48.83 21.81,-11.74 46.31,-17.62 73.49,-17.62 27.52,0 52.18,5.87 73.99,17.62 21.81,11.74 38.84,28.02 51.09,48.83 12.25,20.8 18.37,44.46 18.37,70.97 0,26.51 -6.13,50.25 -18.37,71.22 -12.25,20.97 -29.28,37.33 -51.09,49.07 -21.81,11.74 -46.48,17.62 -73.99,17.62zm0 -53.86c23.15,0 42.28,-7.72 57.38,-23.15 15.1,-15.44 22.65,-35.74 22.65,-60.91 0,-25.17 -7.55,-45.47 -22.65,-60.91 -15.1,-15.44 -34.23,-23.15 -57.38,-23.15 -23.15,0 -42.2,7.72 -57.13,23.15 -14.93,15.44 -22.4,35.74 -22.4,60.91 0,25.17 7.46,45.47 22.4,60.91 14.93,15.44 33.98,23.15 57.13,23.15zm263.76 -179.19c18.12,-28.19 50,-42.28 95.64,-42.28l0 59.9c-5.37,-1.01 -10.24,-1.51 -14.6,-1.51 -24.5,0 -43.62,7.13 -57.38,21.39 -13.76,14.26 -20.64,34.81 -20.64,61.66l0 130.37 -62.92 0 0 -268.79 59.9 0 0 39.26zm452.01 214.93c-7.38,6.04 -16.36,10.57 -26.93,13.59 -10.57,3.02 -21.73,4.53 -33.47,4.53 -29.53,0 -52.35,-7.72 -68.46,-23.15 -16.11,-15.44 -24.16,-37.92 -24.16,-67.45l0 -129.36 -44.3 0 0 -50.33 44.3 0 0 -61.41 62.92 0 0 61.41 71.98 0 0 50.33 -71.98 0 0 127.85c0,13.09 3.19,23.07 9.56,29.95 6.37,6.88 15.6,10.32 27.69,10.32 14.09,0 25.84,-3.69 35.23,-11.07l17.62 44.8zm163.59 18.12c-27.18,0 -51.68,-5.87 -73.49,-17.62 -21.81,-11.74 -38.84,-28.1 -51.09,-49.07 -12.25,-20.97 -18.37,-44.72 -18.37,-71.22 0,-26.51 6.13,-50.17 18.37,-70.97 12.25,-20.81 29.28,-37.08 51.09,-48.83 21.81,-11.74 46.31,-17.62 73.49,-17.62 27.52,0 52.18,5.87 73.99,17.62 21.81,11.74 38.84,28.02 51.09,48.83 12.25,20.8 18.37,44.46 18.37,70.97 0,26.51 -6.13,50.25 -18.37,71.22 -12.25,20.97 -29.28,37.33 -51.09,49.07 -21.81,11.74 -46.48,17.62 -73.99,17.62zm0 -53.86c23.15,0 42.28,-7.72 57.38,-23.15 15.1,-15.44 22.65,-35.74 22.65,-60.91 0,-25.17 -7.55,-45.47 -22.65,-60.91 -15.1,-15.44 -34.23,-23.15 -57.38,-23.15 -23.15,0 -42.2,7.72 -57.13,23.15 -14.93,15.44 -22.4,35.74 -22.4,60.91 0,25.17 7.46,45.47 22.4,60.91 14.93,15.44 33.98,23.15 57.13,23.15zm543.11 -221.48c33.89,0 60.74,9.82 80.54,29.45 19.8,19.63 29.7,49.07 29.7,88.34l0 154.02 -62.92 0 0 -145.97c0,-23.49 -5.2,-41.19 -15.6,-53.1 -10.4,-11.91 -25.33,-17.87 -44.8,-17.87 -21.14,0 -38.09,6.96 -50.84,20.89 -12.75,13.93 -19.13,33.81 -19.13,59.65l0 136.41 -62.92 0 0 -145.97c0,-23.49 -5.2,-41.19 -15.61,-53.1 -10.4,-11.91 -25.33,-17.87 -44.8,-17.87 -21.48,0 -38.5,6.88 -51.09,20.64 -12.59,13.76 -18.88,33.72 -18.88,59.9l0 136.41 -62.92 0 0 -268.79 59.9 0 0 34.22c10.07,-12.08 22.65,-21.31 37.75,-27.68 15.1,-6.38 31.88,-9.57 50.33,-9.57 20.13,0 38,3.78 53.61,11.33 15.6,7.55 27.94,18.71 37,33.47 11.07,-14.09 25.33,-25.08 42.78,-32.97 17.45,-7.89 36.75,-11.83 57.89,-11.83zm314.09 275.33c-27.18,0 -51.68,-5.87 -73.49,-17.62 -21.81,-11.74 -38.84,-28.1 -51.09,-49.07 -12.25,-20.97 -18.37,-44.72 -18.37,-71.22 0,-26.51 6.13,-50.17 18.37,-70.97 12.25,-20.81 29.28,-37.08 51.09,-48.83 21.81,-11.74 46.31,-17.62 73.49,-17.62 27.52,0 52.18,5.87 73.99,17.62 21.81,11.74 38.84,28.02 51.09,48.83 12.25,20.8 18.37,44.46 18.37,70.97 0,26.51 -6.13,50.25 -18.37,71.22 -12.25,20.97 -29.28,37.33 -51.09,49.07 -21.81,11.74 -46.48,17.62 -73.99,17.62zm0 -53.86c23.15,0 42.28,-7.72 57.38,-23.15 15.1,-15.44 22.65,-35.74 22.65,-60.91 0,-25.17 -7.55,-45.47 -22.65,-60.91 -15.1,-15.44 -34.23,-23.15 -57.38,-23.15 -23.15,0 -42.2,7.72 -57.13,23.15 -14.93,15.44 -22.4,35.74 -22.4,60.91 0,25.17 7.46,45.47 22.4,60.91 14.93,15.44 33.98,23.15 57.13,23.15zm263.76 -179.19c18.12,-28.19 50,-42.28 95.64,-42.28l0 59.9c-5.37,-1.01 -10.24,-1.51 -14.6,-1.51 -24.5,0 -43.62,7.13 -57.38,21.39 -13.76,14.26 -20.64,34.81 -20.64,61.66l0 130.37 -62.92 0 0 -268.79 59.9 0 0 39.26zm208.89 0c18.12,-28.19 50,-42.28 95.64,-42.28l0 59.9c-5.37,-1.01 -10.24,-1.51 -14.6,-1.51 -24.5,0 -43.62,7.13 -57.38,21.39 -13.76,14.26 -20.64,34.81 -20.64,61.66l0 130.37 -62.92 0 0 -268.79 59.9 0 0 39.26zm267.28 233.05c-27.18,0 -51.68,-5.87 -73.49,-17.62 -21.81,-11.74 -38.84,-28.1 -51.09,-49.07 -12.25,-20.97 -18.37,-44.72 -18.37,-71.22 0,-26.51 6.13,-50.17 18.37,-70.97 12.25,-20.81 29.28,-37.08 51.09,-48.83 21.81,-11.74 46.31,-17.62 73.49,-17.62 27.52,0 52.18,5.87 73.99,17.62 21.81,11.74 38.84,28.02 51.09,48.83 12.25,20.8 18.37,44.46 18.37,70.97 0,26.51 -6.13,50.25 -18.37,71.22 -12.25,20.97 -29.28,37.33 -51.09,49.07 -21.81,11.74 -46.48,17.62 -73.99,17.62zm0 -53.86c23.15,0 42.28,-7.72 57.38,-23.15 15.1,-15.44 22.65,-35.74 22.65,-60.91 0,-25.17 -7.55,-45.47 -22.65,-60.91 -15.1,-15.44 -34.23,-23.15 -57.38,-23.15 -23.15,0 -42.2,7.72 -57.13,23.15 -14.93,15.44 -22.4,35.74 -22.4,60.91 0,25.17 7.46,45.47 22.4,60.91 14.93,15.44 33.98,23.15 57.13,23.15zm615.6 -218.45l-99.16 268.79 -60.4 0 -69.46 -185.23 -70.47 185.23 -60.4 0 -98.66 -268.79 59.4 0 70.97 198.32 73.99 -198.32 52.85 0 72.48 199.33 72.98 -199.33 55.87 0z"/>
  <path class="fil1" d="M1042.93 141.49c0,37.71 26.57,69.16 62,76.78l0 0 0 119.35 -367.5 0 0 488 -461.32 0 0 839.44 461.32 0 0 828.21c0,331.21 80.32,568.3 241.59,711.9l0 0c161.27,143.27 386.47,214.93 676.25,214.93l0 0 341.49 0 0 -651.84 -239.33 0c-94.76,0 -161.91,-19.26 -201.75,-57.82l0 0c-39.84,-38.23 -60.07,-106.33 -60.07,-204l0 0 0 -841.37 464.22 0c0.32,0 0.32,0 0.32,-0.31l0 0 0 -839.13 -464.54 0 0 -488 -357.42 0 0 -119.35c50.67,-10.92 83.25,-70.54 45.82,-127.55l0 0c-2.94,-4.51 -7.07,-8.62 -11.55,-11.58l0 0c-17.17,-11.32 -34.62,-16.27 -50.9,-16.27l0 0c-43.43,0 -78.61,35.19 -78.61,78.63l-0.02 -0.01zm1450.47 3307.48l275.07 0c201.31,0 301.97,-107.1 301.97,-321.52l0 0 0 -92.37 -326.32 0 0 131.45c0,13.09 -4.39,24.36 -13.34,34.01l0 0c-8.96,9.88 -20,14.71 -32.85,14.71l0 0 -133.97 0c-13.11,0 -23.91,-4.83 -32.87,-14.71l0 0c-8.95,-9.65 -13.31,-20.91 -13.31,-34.01l0 0 0 -248.42 552.69 0 0 -384.69c0,-214.18 -100.66,-321.26 -301.97,-321.26l0 0 -275.07 0c-201.32,0 -301.98,107.09 -301.98,321.26l0 0 0 594.04c0,214.42 100.66,321.52 301.98,321.52l-0.01 -0.01zm2157.2 0l270.24 0c201.32,0 301.98,-107.1 301.98,-321.52l0 0 0 -126.39c0,-214.41 -100.65,-321.5 -301.98,-321.5l0 0 -250.72 0c-13.08,0 -23.89,-4.82 -32.85,-14.69l0 0c-8.95,-9.65 -13.33,-20.93 -13.33,-34.01l0 0 0 -129.16c0,-12.87 4.38,-24.36 13.33,-34.01l0 0c8.97,-9.65 19.77,-14.48 32.85,-14.48l0 0 185.01 0c13.11,0 23.91,4.83 32.85,14.48l0 0c8.97,9.65 13.33,21.14 13.33,34.01l0 0 0 75.61 301.96 0 0 -43.89c0,-214.18 -100.65,-321.26 -301.96,-321.26l0 0 -255.54 0c-201.32,0 -301.98,107.09 -301.98,321.26l0 0 0 109.61c0,214.18 100.65,321.5 301.98,321.5l0 0 250.72 0c13.09,0 23.89,4.83 32.85,14.48l0 0c8.95,9.65 13.55,21.14 13.55,34.01l0 0 0 146.17c0,13.09 -4.6,24.36 -13.55,34.22l0 0c-8.96,9.65 -19.77,14.48 -32.85,14.48l0 0 -199.71 0c-12.87,0 -23.9,-4.83 -32.85,-14.48l0 0c-8.74,-9.88 -13.33,-21.15 -13.33,-34.22l0 0 0 -107.09 -301.97 0 0 75.36c0,214.42 100.64,321.52 301.97,321.52zm2809.87 0l275.07 0c201.31,0 301.96,-107.1 301.96,-321.52l0 0 0 -170.28 -326.33 0 0 209.36c0,13.09 -4.37,24.36 -13.33,34.01l0 0c-8.96,9.88 -19.98,14.71 -32.85,14.71l0 0 -133.97 0c-13.11,0 -23.91,-4.83 -32.87,-14.71l0 0c-8.96,-9.65 -13.32,-20.91 -13.32,-34.01l0 0 0 -671.96c0,-13.11 4.35,-24.37 13.32,-34.25l0 0c8.95,-9.65 19.76,-14.48 32.87,-14.48l0 0 133.97 0c12.87,0 23.89,4.82 32.85,14.48l0 0c8.95,9.88 13.33,21.14 13.33,34.25l0 0 0 209.36 326.33 0 0 -170.52c0,-214.18 -100.65,-321.26 -301.96,-321.26l0 0 -275.07 0c-201.32,0 -301.98,107.09 -301.98,321.26l0 0 0 594.04c0,214.42 100.65,321.52 301.98,321.52zm1085.82 0l275.09 0c201.31,0 301.96,-107.1 301.96,-321.52l0 0 0 -594.04c0,-214.18 -100.65,-321.26 -301.96,-321.26l0 0 -275.09 0c-201.3,0 -301.96,107.09 -301.96,321.26l0 0 0 594.04c0,214.42 100.66,321.52 301.96,321.52zm-8160.98 -1940.37l0 -526.86c0,-26.01 20.89,-46.9 46.26,-46.9l0 0 305.84 0 758.17 0 309.04 0c25.39,0 45.93,20.89 45.93,46.9l0 0 0 526.86c0,26.03 -20.56,46.9 -45.93,46.9l0 0 -309.04 0 -758.17 0 -305.84 0c-25.38,0 -46.26,-20.87 -46.26,-46.9zm352.1 -344.71c-34.05,40.49 -43.05,102.48 -3.54,162.56l0 0c0.97,1.6 1.94,2.88 3.54,4.48l0 0c3.85,5.48 9.32,10.3 15.09,14.15l0 0c128.51,84.8 265.36,-53.97 180.54,-181.83l0 0c-4.8,-7.07 -11.56,-13.81 -18.63,-18.31l0 0c-27.36,-17.82 -55.1,-25.62 -80.99,-25.62l0 0c-38.52,0 -72.96,17.28 -96.01,44.57l0 0zm565.73 162.56c4.81,7.38 11.24,13.81 18.63,18.63l0 0c66.17,43.69 134.29,27.94 173.8,-14.78l0 0c36.94,-40.16 47.86,-105.06 6.74,-167.06l0 0c-1.92,-2.89 -4.17,-5.78 -6.74,-8.36l0 0c-3.54,-3.85 -7.71,-7.37 -11.89,-9.95l0 0c-27.32,-17.8 -55.02,-25.6 -80.9,-25.6l0 0c-95.55,0.01 -166.14,106.25 -99.65,207.11l0 0.01zm5336.67 506.95c-35.62,34.94 -53.55,77.21 -53.55,126.63l0 0c0,49.65 17.91,91.7 53.55,126.64l0 0c35.84,34.91 77.9,52.38 126.63,52.38l0 0c48.72,0 90.53,-17.01 125.47,-51.25l0 0c34.92,-34.01 52.39,-76.28 52.39,-126.62l0 0c0,-50.33 -17.47,-92.85 -52.39,-127.78l0 0c-34.94,-34.93 -76.74,-52.38 -125.47,-52.38l0 0c-48.72,0 -90.79,17.46 -126.63,52.38zm-1144.21 0c-35.85,34.94 -53.56,77.21 -53.56,126.63l0 0c0,49.65 17.7,91.7 53.56,126.64l0 0c35.62,34.91 77.9,52.38 126.61,52.38l0 0c48.49,0 90.32,-17.01 125.26,-51.25l0 0c34.92,-34.01 52.38,-76.28 52.38,-126.62l0 0c0,-50.33 -17.46,-92.85 -52.38,-127.78l0 0c-34.94,-34.93 -76.77,-52.38 -125.26,-52.38l0 0c-48.72,0 -90.99,17.46 -126.61,52.38zm518.44 1591.19l326.33 0 0 -1575.33 -326.33 0 0 1575.33zm-2763.44 -1575.33l0 1575.33 326.33 0 0 -494.32 97.2 0 224.05 494.32 326.33 0 -282.42 -630.6 243.37 -557.52 -321.28 0 -177.89 426.07 -109.38 0 0 -813.28 -326.33 0 0.02 0zm6620.29 362.88c-102.26,0 -178.56,28.25 -228.88,85.24l0 0 0 -60.9 -297.14 0 0 1188.11 326.33 0 0 -930.03c0,-13.11 4.37,-24.37 13.32,-34.25l0 0c8.96,-9.65 20,-14.48 32.85,-14.48l0 0 133.98 0c13.11,0 23.91,4.82 32.87,14.48l0 0c8.96,9.88 13.55,21.14 13.55,34.25l0 0 0 930.03 326.11 0 0 -891.19c0,-214.18 -100.66,-321.26 -301.97,-321.26l0 0 -51.02 0zm-1286.92 1017.58c-8.74,-9.65 -13.31,-20.93 -13.31,-34.01l0 0 0 -732.85c0,-13.11 4.58,-24.37 13.31,-34.02l0 0c8.96,-9.89 19.98,-14.72 32.85,-14.72l0 0 133.98 0c13.11,0 23.9,4.83 32.87,14.72l0 0c8.97,9.65 13.56,20.91 13.56,34.02l0 0 0 732.85c0,13.09 -4.59,24.36 -13.56,34.01l0 0c-8.96,9.87 -19.76,14.71 -32.87,14.71l0 0 -133.98 0c-12.87,0 -23.89,-4.84 -32.85,-14.71zm-6066.23 -745.04c0,-12.86 4.37,-24.36 13.32,-34.02l0 0c8.96,-9.65 19.77,-14.69 32.87,-14.69l0 0 133.97 0c12.85,0 23.89,5.03 32.85,14.69l0 0c8.95,9.65 13.34,21.16 13.34,34.02l0 0 0 219.25 -226.37 0 0 -219.25 0.01 0zm4085.52 939.91l326.33 0 0 -1188.11 -326.33 0 0 1188.11zm-1144.21 0l326.09 0 0 -1188.11 -326.09 0 0 1188.11z"/>
 </g>
 <g id="Layer_x0020_1_0">
  <metadata id="CorelCorpID_1Corel-Layer"/>
 </g>
</svg>
